<svg width="16" height="16" viewBox="0 0 16 16" fill="none" xmlns="http://www.w3.org/2000/svg">
<path d="M3.36135 1.33553C2.82465 1.33817 2.31065 1.55238 1.93091 1.93165C1.55116 2.31092 1.33632 2.82466 1.33301 3.36135V5.30403C1.33301 6.41773 2.25017 7.33238 3.36135 7.33238H5.30403C5.84117 7.32973 6.35555 7.11518 6.73536 6.73536C7.11518 6.35555 7.32973 5.84117 7.33238 5.30403V3.36135C7.32973 2.82422 7.11518 2.30984 6.73536 1.93002C6.35555 1.55021 5.84117 1.33566 5.30403 1.33301L3.36135 1.33553ZM3.36135 2.66844H5.30403C5.70214 2.66844 5.99946 2.96576 5.99946 3.36135V5.30403C6.00189 5.39602 5.98556 5.48753 5.95147 5.57301C5.91738 5.65848 5.86625 5.73611 5.80118 5.80118C5.73611 5.86625 5.65848 5.91738 5.57301 5.95147C5.48753 5.98556 5.39602 6.00189 5.30403 5.99946H3.36135C3.26958 6.00154 3.17833 5.98496 3.09316 5.95071C3.00798 5.91647 2.93065 5.86528 2.86586 5.80025C2.80106 5.73522 2.75015 5.6577 2.71622 5.5724C2.68228 5.4871 2.66603 5.3958 2.66844 5.30403V3.36135C2.66844 2.96576 2.96576 2.66844 3.36135 2.66844ZM3.36135 8.66781C2.82465 8.67045 2.31065 8.88466 1.93091 9.26393C1.55116 9.6432 1.33632 10.1569 1.33301 10.6936V12.6388C1.33301 13.7475 2.25017 14.6647 3.36135 14.6647H5.30403C5.84073 14.662 6.35473 14.4478 6.73448 14.0685C7.11422 13.6893 7.32907 13.1755 7.33238 12.6388V10.6936C7.32973 10.1565 7.11518 9.64212 6.73536 9.26231C6.35555 8.88249 5.84117 8.66794 5.30403 8.66529L3.36135 8.66781ZM3.36135 10.0007H5.30403C5.70214 10.0007 5.99946 10.298 5.99946 10.6936V12.6388C6.00154 12.7306 5.98496 12.8219 5.95071 12.907C5.91647 12.9922 5.86528 13.0695 5.80025 13.1343C5.73522 13.1991 5.6577 13.25 5.5724 13.284C5.4871 13.3179 5.3958 13.3342 5.30403 13.3317H3.36135C3.26979 13.3338 3.17876 13.3173 3.09376 13.2832C3.00876 13.2491 2.93155 13.1982 2.86679 13.1334C2.80203 13.0686 2.75107 12.9914 2.71698 12.9064C2.68289 12.8214 2.66637 12.7304 2.66844 12.6388V10.6936C2.66844 10.298 2.96576 10.0007 3.36135 10.0007ZM10.6936 1.33553C10.1569 1.33817 9.64293 1.55238 9.26319 1.93165C8.88344 2.31092 8.6686 2.82466 8.66529 3.36135V5.30403C8.66529 6.41773 9.58246 7.33238 10.6936 7.33238H12.6388C13.1755 7.32907 13.6893 7.11422 14.0685 6.73448C14.4478 6.35473 14.662 5.84073 14.6647 5.30403V3.36135C14.662 2.82465 14.4478 2.31065 14.0685 1.93091C13.6893 1.55116 13.1755 1.33632 12.6388 1.33301L10.6936 1.33553ZM10.6936 2.66844H12.6388C13.0344 2.66844 13.3317 2.96576 13.3317 3.36135V5.30403C13.3342 5.3958 13.3179 5.4871 13.284 5.5724C13.25 5.6577 13.1991 5.73522 13.1343 5.80025C13.0695 5.86528 12.9922 5.91647 12.907 5.95071C12.8219 5.98496 12.7306 6.00154 12.6388 5.99946H10.6936C10.6019 6.00154 10.5106 5.98496 10.4254 5.95071C10.3403 5.91647 10.2629 5.86528 10.1981 5.80025C10.1333 5.73522 10.0824 5.6577 10.0485 5.5724C10.0146 5.4871 9.99831 5.3958 10.0007 5.30403V3.36135C10.0007 2.96576 10.298 2.66844 10.6936 2.66844ZM10.6936 8.66781C10.1569 8.67045 9.64293 8.88466 9.26319 9.26393C8.88344 9.6432 8.6686 10.1569 8.66529 10.6936V12.6388C8.66529 13.7475 9.58246 14.6647 10.6936 14.6647H12.6388C13.1751 14.6614 13.6885 14.4469 14.0677 14.0677C14.4469 13.6885 14.6614 13.1751 14.6647 12.6388V10.6936C14.662 10.1569 14.4478 9.64293 14.0685 9.26319C13.6893 8.88344 13.1755 8.6686 12.6388 8.66529L10.6936 8.66781ZM10.6936 10.0007H12.6388C13.0344 10.0007 13.3317 10.298 13.3317 10.6936V12.6388C13.3338 12.7304 13.3173 12.8214 13.2832 12.9064C13.2491 12.9914 13.1982 13.0686 13.1334 13.1334C13.0686 13.1982 12.9914 13.2491 12.9064 13.2832C12.8214 13.3173 12.7304 13.3338 12.6388 13.3317H10.6936C10.6021 13.3338 10.511 13.3173 10.426 13.2832C10.341 13.2491 10.2638 13.1982 10.1991 13.1334C10.1343 13.0686 10.0834 12.9914 10.0493 12.9064C10.0152 12.8214 9.99866 12.7304 10.0007 12.6388V10.6936C10.0007 10.298 10.298 10.0007 10.6936 10.0007Z" fill="white"/>
</svg>
