<svg width="74" height="57" viewBox="0 0 74 57" fill="none" xmlns="http://www.w3.org/2000/svg">
<g id="Group">
<path id="Vector" d="M21.375 32.8875C21.625 33.1375 21.9375 33.25 22.2625 33.25C22.5875 33.25 22.9 33.125 23.15 32.8875C23.2659 32.7719 23.3578 32.6345 23.4205 32.4833C23.4833 32.3321 23.5156 32.17 23.5156 32.0063C23.5156 31.8425 23.4833 31.6804 23.4205 31.5292C23.3578 31.378 23.2659 31.2406 23.15 31.125L20.65 28.625L23.15 26.125C23.3837 25.8913 23.515 25.5743 23.515 25.2437C23.515 24.9132 23.3837 24.5962 23.15 24.3625C22.9163 24.1288 22.5993 23.9975 22.2688 23.9975C21.9382 23.9975 21.6212 24.1288 21.3875 24.3625L18.8875 26.8625L16.3875 24.3625C16.2718 24.2468 16.1344 24.155 15.9832 24.0923C15.832 24.0297 15.6699 23.9975 15.5063 23.9975C15.3426 23.9975 15.1805 24.0297 15.0293 24.0923C14.8781 24.155 14.7407 24.2468 14.625 24.3625C14.5093 24.4782 14.4175 24.6156 14.3548 24.7668C14.2922 24.918 14.26 25.0801 14.26 25.2437C14.26 25.4074 14.2922 25.5695 14.3548 25.7207C14.4175 25.8719 14.5093 26.0093 14.625 26.125L17.125 28.625L14.625 31.125C14.4506 31.2996 14.3319 31.522 14.2842 31.7641C14.2365 32.0063 14.2617 32.2571 14.3568 32.4848C14.452 32.7125 14.6126 32.9069 14.8183 33.0431C15.0241 33.1793 15.2657 33.2514 15.5125 33.25C15.8375 33.25 16.15 33.125 16.4 32.8875L18.9 30.3875L21.4 32.8875H21.375ZM44.3875 24.35C44.2719 24.2341 44.1345 24.1422 43.9833 24.0795C43.8321 24.0167 43.67 23.9844 43.5063 23.9844C43.3425 23.9844 43.1804 24.0167 43.0292 24.0795C42.878 24.1422 42.7406 24.2341 42.625 24.35L40.125 26.85L37.625 24.35C37.3913 24.1163 37.0743 23.985 36.7438 23.985C36.4132 23.985 36.0962 24.1163 35.8625 24.35C35.6288 24.5837 35.4975 24.9007 35.4975 25.2312C35.4975 25.5618 35.6288 25.8788 35.8625 26.1125L38.3625 28.6125L35.8625 31.1125C35.6881 31.2871 35.5694 31.5095 35.5217 31.7516C35.474 31.9938 35.4992 32.2446 35.5943 32.4723C35.6895 32.7 35.8501 32.8944 36.0559 33.0306C36.2616 33.1668 36.5032 33.2389 36.75 33.2375C37.075 33.2375 37.3875 33.1125 37.6375 32.875L40.1375 30.375L42.6375 32.875C42.8875 33.125 43.2 33.2375 43.525 33.2375C43.85 33.2375 44.1625 33.1125 44.4125 32.875C44.5284 32.7594 44.6203 32.622 44.683 32.4708C44.7458 32.3196 44.7781 32.1575 44.7781 31.9937C44.7781 31.83 44.7458 31.6679 44.683 31.5167C44.6203 31.3655 44.5284 31.2281 44.4125 31.1125L41.9125 28.6125L44.4125 26.1125C44.5284 25.9969 44.6203 25.8595 44.683 25.7083C44.7458 25.5571 44.7781 25.395 44.7781 25.2312C44.7781 25.0675 44.7458 24.9054 44.683 24.7542C44.6203 24.603 44.5284 24.4656 44.4125 24.35H44.3875ZM64.5 29.5C62.4375 29.5 60.75 31.1875 60.75 33.25C60.75 35.3125 62.4375 37 64.5 37C66.5625 37 68.25 35.3125 68.25 33.25C68.25 31.1875 66.5625 29.5 64.5 29.5ZM64.5 34.5C63.8125 34.5 63.25 33.9375 63.25 33.25C63.25 32.5625 63.8125 32 64.5 32C65.1875 32 65.75 32.5625 65.75 33.25C65.75 33.9375 65.1875 34.5 64.5 34.5ZM21.25 42.25C20.7 42.6625 20.575 43.45 20.9875 44C21.4 44.55 22.1875 44.675 22.7375 44.2625C27.2875 40.8875 31.7 40.8875 36.25 44.2625C36.475 44.425 36.7375 44.5125 37 44.5125C37.2628 44.5131 37.5191 44.4304 37.7321 44.2765C37.9451 44.1225 38.1039 43.905 38.1857 43.6553C38.2676 43.4055 38.2683 43.1363 38.1878 42.8861C38.1073 42.6359 37.9497 42.4176 37.7375 42.2625C32.2625 38.2 26.7125 38.2 21.25 42.2625V42.25ZM10.0625 8.25H54.875C55.5625 8.25 56.125 7.6875 56.125 7C56.125 6.3125 55.5625 5.75 54.875 5.75H10.0625C9.375 5.75 8.8125 6.3125 8.8125 7C8.8125 7.6875 9.375 8.25 10.0625 8.25Z" fill="#ED6D2C"/>
<path id="Vector_2" d="M69.5 23.25V14.5C69.5 12.4375 67.8125 10.75 65.75 10.75H63.25V4.5C63.25 2.4375 61.5625 0.75 59.5 0.75H7C3.55 0.75 0.75 3.55 0.75 7V50.75C0.75 54.2 3.55 57 7 57H65.75C67.8125 57 69.5 55.3125 69.5 53.25V43.25C71.5625 43.25 73.25 41.5625 73.25 39.5V27C73.25 24.9375 71.5625 23.25 69.5 23.25ZM7 3.25H59.5C60.1875 3.25 60.75 3.8125 60.75 4.5V10.75H7C4.9375 10.75 3.25 9.0625 3.25 7C3.25 4.9375 4.9375 3.25 7 3.25ZM67 53.25C67 53.9375 66.4375 54.5 65.75 54.5H7C4.9375 54.5 3.25 52.8125 3.25 50.75V11.9625C4.3 12.75 5.5875 13.25 7 13.25H65.75C66.4375 13.25 67 13.8125 67 14.5V23.25H62C58.55 23.25 55.75 26.05 55.75 29.5V37C55.75 40.45 58.55 43.25 62 43.25H67V53.25ZM70.75 39.5C70.75 40.1875 70.1875 40.75 69.5 40.75H62C59.9375 40.75 58.25 39.0625 58.25 37V29.5C58.25 27.4375 59.9375 25.75 62 25.75H69.5C70.1875 25.75 70.75 26.3125 70.75 27V39.5Z" fill="#ED6D2C"/>
</g>
</svg>
