<svg width="20" height="20" viewBox="0 0 20 20" fill="none" xmlns="http://www.w3.org/2000/svg">
<path d="M12.4545 1.0415C11.3153 1.0415 10.3961 1.0415 9.67363 1.139C8.92363 1.239 8.29196 1.45567 7.7903 1.9565C7.35363 2.394 7.13196 2.9315 7.01613 3.56317C6.90363 4.17734 6.88196 4.92817 6.87696 5.82984C6.87608 5.9956 6.94108 6.15492 7.05766 6.27276C7.17425 6.39059 7.33287 6.45729 7.49863 6.45817C7.66439 6.45905 7.82371 6.39405 7.94155 6.27747C8.05938 6.16088 8.12608 6.00226 8.12696 5.8365C8.13196 4.92567 8.1553 4.27984 8.2453 3.789C8.3328 3.31734 8.47196 3.04317 8.67446 2.84067C8.9053 2.60984 9.22946 2.45984 9.84113 2.37734C10.4703 2.29317 11.3045 2.2915 12.5003 2.2915H13.3336C14.5303 2.2915 15.3645 2.29317 15.9936 2.37734C16.6053 2.45984 16.9286 2.61067 17.1603 2.84067C17.392 3.07067 17.5403 3.39484 17.6228 4.00734C17.7078 4.63567 17.7086 5.47067 17.7086 6.6665V13.3332C17.7086 14.529 17.7078 15.364 17.6228 15.9932C17.5403 16.6048 17.3903 16.9282 17.1595 17.159C16.9286 17.3898 16.6053 17.5398 15.9936 17.6223C15.3645 17.7065 14.5303 17.7082 13.3336 17.7082H12.5003C11.3045 17.7082 10.4703 17.7065 9.8403 17.6223C9.22946 17.5398 8.9053 17.389 8.67446 17.159C8.47196 16.9565 8.3328 16.6823 8.2453 16.2107C8.1553 15.7198 8.13196 15.074 8.12696 14.1632C8.12652 14.0811 8.10992 13.9999 8.07811 13.9242C8.0463 13.8486 7.99989 13.7799 7.94155 13.7222C7.8832 13.6645 7.81406 13.6188 7.73806 13.5878C7.66206 13.5568 7.58071 13.5411 7.49863 13.5415C7.41655 13.5419 7.33537 13.5585 7.25971 13.5904C7.18404 13.6222 7.11539 13.6686 7.05766 13.7269C6.99994 13.7853 6.95427 13.8544 6.92326 13.9304C6.89226 14.0064 6.87652 14.0878 6.87696 14.1698C6.88196 15.0715 6.90363 15.8223 7.01613 16.4365C7.1328 17.0682 7.35363 17.6057 7.79113 18.0432C8.29196 18.5448 8.92446 18.7598 9.67446 18.8615C10.3961 18.9582 11.3153 18.9582 12.4545 18.9582H13.3795C14.5195 18.9582 15.4378 18.9582 16.1603 18.8607C16.9103 18.7607 17.542 18.544 18.0436 18.0432C18.5453 17.5415 18.7603 16.9098 18.862 16.1598C18.9586 15.4373 18.9586 14.5182 18.9586 13.379V6.62067C18.9586 5.4815 18.9586 4.56234 18.862 3.83984C18.7611 3.08984 18.5453 2.45817 18.0436 1.9565C17.542 1.45484 16.9103 1.23984 16.1603 1.139C15.4378 1.0415 14.5186 1.0415 13.3795 1.0415H12.4545Z" fill="#707070"/>
<path d="M1.66797 9.37384C1.50221 9.37384 1.34324 9.43969 1.22603 9.5569C1.10882 9.67411 1.04297 9.83308 1.04297 9.99884C1.04297 10.1646 1.10882 10.3236 1.22603 10.4408C1.34324 10.558 1.50221 10.6238 1.66797 10.6238H11.6455L10.0113 12.0238C9.94892 12.0772 9.89768 12.1424 9.86048 12.2156C9.82329 12.2888 9.80088 12.3686 9.79454 12.4505C9.78172 12.6159 9.83511 12.7795 9.94297 12.9055C10.0508 13.0315 10.2043 13.1095 10.3696 13.1223C10.535 13.1351 10.6987 13.0817 10.8246 12.9738L13.7413 10.4738C13.8099 10.4152 13.865 10.3423 13.9028 10.2603C13.9405 10.1783 13.9601 10.0891 13.9601 9.99884C13.9601 9.90856 13.9405 9.81935 13.9028 9.73735C13.865 9.65536 13.8099 9.58251 13.7413 9.52384L10.8246 7.02384C10.6987 6.91598 10.535 6.86259 10.3696 6.87541C10.2043 6.88822 10.0508 6.96619 9.94297 7.09217C9.83511 7.21815 9.78172 7.38181 9.79454 7.54716C9.80735 7.7125 9.88532 7.86598 10.0113 7.97384L11.6446 9.37384H1.66797Z" fill="#707070"/>
</svg>
