<svg width="16" height="16" viewBox="0 0 16 16" fill="none" xmlns="http://www.w3.org/2000/svg">
<g clip-path="url(#clip0_2840_8626)">
<path d="M15.2449 8.52645C15.046 8.52645 14.8552 8.60546 14.7146 8.74611C14.5739 8.88677 14.4949 9.07753 14.4949 9.27645V12.2955C14.4942 12.8786 14.2623 13.4377 13.85 13.85C13.4377 14.2623 12.8786 14.4942 12.2955 14.4949H3.70426C3.12115 14.4942 2.56211 14.2623 2.1498 13.85C1.73748 13.4377 1.50554 12.8786 1.50488 12.2955V3.70426C1.50554 3.12115 1.73748 2.56211 2.1498 2.1498C2.56211 1.73748 3.12115 1.50554 3.70426 1.50488H6.72332C6.82181 1.50488 6.91934 1.48548 7.01033 1.44779C7.10133 1.4101 7.18401 1.35486 7.25365 1.28521C7.32329 1.21557 7.37854 1.13289 7.41623 1.0419C7.45392 0.950901 7.47332 0.853374 7.47332 0.754883C7.47332 0.656391 7.45392 0.558864 7.41623 0.46787C7.37854 0.376876 7.32329 0.294197 7.25365 0.224553C7.18401 0.154909 7.10133 0.0996642 7.01033 0.0619732C6.91934 0.0242821 6.82181 0.00488281 6.72332 0.00488281H3.70426C2.72348 0.00604066 1.7832 0.396167 1.08968 1.08968C0.396167 1.7832 0.00604066 2.72348 0.00488281 3.70426V12.2955C0.00604066 13.2763 0.396167 14.2166 1.08968 14.9101C1.7832 15.6036 2.72348 15.9937 3.70426 15.9949H12.2955C13.2763 15.9937 14.2166 15.6036 14.9101 14.9101C15.6036 14.2166 15.9937 13.2763 15.9949 12.2955V9.27645C15.9949 9.07753 15.9159 8.88677 15.7752 8.74611C15.6346 8.60546 15.4438 8.52645 15.2449 8.52645Z" fill="#423E3E"/>
<path d="M15.2285 6.33675e-08H10.566C10.3696 -3.75993e-05 10.181 0.0769607 10.0408 0.214452C9.90054 0.351943 9.81983 0.538957 9.81598 0.735313C9.80817 1.15625 10.1622 1.5 10.5829 1.5H13.4369L7.46379 7.475C7.32315 7.61565 7.24414 7.80641 7.24414 8.00531C7.24414 8.20422 7.32315 8.39497 7.46379 8.53563C7.60444 8.67627 7.7952 8.75528 7.99411 8.75528C8.19301 8.75528 8.38377 8.67627 8.52442 8.53563L14.4994 2.5625V5.42688C14.4994 5.62579 14.5784 5.81655 14.7191 5.95721C14.8597 6.09786 15.0505 6.17688 15.2494 6.17688C15.4483 6.17688 15.6391 6.09786 15.7797 5.95721C15.9204 5.81655 15.9994 5.62579 15.9994 5.42688V0.770625C15.9994 0.669399 15.9795 0.569164 15.9407 0.475647C15.902 0.382131 15.8452 0.297164 15.7736 0.2256C15.702 0.154037 15.617 0.0972798 15.5235 0.0585707C15.4299 0.0198615 15.3297 -4.09854e-05 15.2285 6.33675e-08Z" fill="#423E3E"/>
</g>
<defs>
<clipPath id="clip0_2840_8626">
<rect width="16" height="16" fill="white"/>
</clipPath>
</defs>
</svg>
