<svg width="16" height="16" viewBox="0 0 16 16" fill="none" xmlns="http://www.w3.org/2000/svg">
<path d="M14.2828 7.20728C14.092 5.69506 13.3623 4.30235 12.2275 3.28475C11.0928 2.26715 9.62908 1.69294 8.10508 1.6675L8.53946 1.23666C8.5709 1.20592 8.59594 1.16926 8.61315 1.1288C8.63035 1.08834 8.63939 1.04487 8.63972 1.0009C8.64006 0.956937 8.63169 0.913338 8.61511 0.872618C8.59852 0.831898 8.57404 0.794862 8.54308 0.763643C8.51212 0.732424 8.47529 0.707639 8.43471 0.690716C8.39413 0.673793 8.3506 0.665067 8.30663 0.665039C8.26266 0.665011 8.21912 0.673683 8.17852 0.690555C8.13792 0.707427 8.10105 0.732165 8.07005 0.763345L7.01421 1.81063C6.98312 1.84144 6.95842 1.87808 6.94149 1.91845C6.92457 1.95882 6.91577 2.00213 6.91559 2.0459C6.91541 2.08967 6.92386 2.13305 6.94045 2.17355C6.95704 2.21406 6.98144 2.2509 7.01227 2.28197L8.06809 3.3465C8.09883 3.37794 8.13548 3.40298 8.17594 3.42019C8.21641 3.43739 8.25987 3.44643 8.30384 3.44676C8.34781 3.4471 8.3914 3.43873 8.43212 3.42215C8.47284 3.40556 8.50988 3.38108 8.5411 3.35012C8.57232 3.31916 8.5971 3.28233 8.61403 3.24175C8.63095 3.20117 8.63968 3.15764 8.6397 3.11367C8.63973 3.0697 8.63106 3.02616 8.61419 2.98556C8.59732 2.94496 8.57258 2.9081 8.5414 2.87709L8.00302 2.33416C9.1768 2.33498 10.3214 2.70026 11.2786 3.37955C12.2358 4.05883 12.9585 5.0186 13.3468 6.12628C13.7352 7.23396 13.7699 8.43489 13.4464 9.56319C13.1228 10.6915 12.4569 11.6915 11.5405 12.425C11.4715 12.4803 11.4274 12.5607 11.4177 12.6486C11.4129 12.6921 11.4167 12.7362 11.4289 12.7782C11.4412 12.8202 11.4615 12.8594 11.4889 12.8936C11.5163 12.9278 11.5501 12.9562 11.5885 12.9773C11.6269 12.9983 11.669 13.0116 11.7125 13.0164C11.8004 13.0261 11.8885 13.0005 11.9575 12.9452C13.6913 11.5548 14.5606 9.40984 14.2828 7.20728ZM7.93171 12.6535C7.90097 12.622 7.86431 12.597 7.82385 12.5798C7.78339 12.5626 7.73992 12.5535 7.69596 12.5532C7.65199 12.5529 7.60839 12.5612 7.56767 12.5778C7.52695 12.5944 7.48991 12.6189 7.4587 12.6498C7.42748 12.6808 7.40269 12.7176 7.38577 12.7582C7.36885 12.7988 7.36012 12.8423 7.36009 12.8863C7.36006 12.9303 7.36874 12.9738 7.38561 13.0144C7.40248 13.055 7.42722 13.0919 7.4584 13.1229L7.99677 13.6656C6.82312 13.6649 5.67866 13.2997 4.72146 12.6206C3.76426 11.9414 3.04154 10.9819 2.65313 9.87434C2.26471 8.76683 2.22977 7.56604 2.55312 6.43781C2.87646 5.30958 3.54215 4.30958 4.45824 3.57594C4.5272 3.5206 4.57135 3.44013 4.58099 3.35224C4.59062 3.26435 4.56494 3.17623 4.5096 3.10727C4.45426 3.03831 4.37379 2.99415 4.2859 2.98452C4.19801 2.97489 4.10989 3.00057 4.04093 3.05591C2.30799 4.44638 1.43918 6.59097 1.71702 8.79266C1.9077 10.3049 2.63743 11.6977 3.77226 12.7153C4.90709 13.7328 6.37087 14.307 7.8949 14.3323L7.46033 14.7633C7.4289 14.7941 7.40386 14.8307 7.38665 14.8712C7.36944 14.9117 7.36041 14.9551 7.36007 14.9991C7.35974 15.0431 7.3681 15.0867 7.38469 15.1274C7.40127 15.1681 7.42575 15.2051 7.45671 15.2364C7.48767 15.2676 7.52451 15.2924 7.56509 15.3093C7.60567 15.3262 7.6492 15.3349 7.69317 15.335C7.73713 15.335 7.78067 15.3263 7.82128 15.3094C7.86188 15.2926 7.89874 15.2678 7.92974 15.2367L8.98555 14.1893C9.01664 14.1585 9.04135 14.1218 9.05828 14.0815C9.0752 14.0411 9.084 13.9978 9.08419 13.954C9.08437 13.9102 9.07593 13.8669 9.05934 13.8264C9.04275 13.7859 9.01835 13.749 8.98752 13.7179L7.93171 12.6535Z" fill="white"/>
<path d="M8.26527 7.73644C8.21789 7.71829 8.17348 7.70154 8.13523 7.68469C8.09323 7.66613 8.04295 7.64685 7.98745 7.62579C7.67183 7.50591 7.50064 7.41119 7.50064 7.25438C7.50064 7.18513 7.57455 7.07763 7.71564 7.00616C7.81564 6.95563 8.17658 6.81719 8.63655 7.15526C8.67179 7.18151 8.71188 7.20053 8.75451 7.21123C8.79713 7.22193 8.84145 7.2241 8.88492 7.21761C8.92838 7.21111 8.97013 7.19608 9.00777 7.17339C9.0454 7.1507 9.07818 7.12079 9.10421 7.08538C9.13024 7.04997 9.14901 7.00976 9.15945 6.96707C9.16988 6.92438 9.17176 6.88005 9.165 6.83662C9.15823 6.7932 9.14294 6.75154 9.12001 6.71405C9.09708 6.67656 9.06696 6.64397 9.03139 6.61816C8.82436 6.46379 8.58647 6.35589 8.33395 6.30182V6.00004C8.3331 5.91219 8.29761 5.82823 8.23519 5.76642C8.17277 5.7046 8.08847 5.66992 8.00062 5.66992C7.91278 5.66992 7.82848 5.7046 7.76606 5.76642C7.70364 5.82823 7.66815 5.91219 7.6673 6.00004V6.31751C7.58015 6.34015 7.49552 6.37156 7.4147 6.41126C7.05645 6.59251 6.83398 6.91557 6.83398 7.25435C6.83398 7.90085 7.45314 8.13604 7.75083 8.24907C7.79395 8.26535 7.83336 8.28016 7.86608 8.29463C7.91377 8.31563 7.96861 8.33679 8.02736 8.35926C8.35467 8.48426 8.50067 8.56679 8.50067 8.72488C8.50067 8.79407 8.42677 8.90163 8.28567 8.97294C8.18567 9.02341 7.82489 9.16207 7.36477 8.82385C7.29354 8.77149 7.20443 8.74957 7.11704 8.76291C7.02965 8.77625 6.95114 8.82376 6.89878 8.89499C6.84642 8.96622 6.8245 9.05533 6.83784 9.14272C6.85118 9.23011 6.89869 9.30862 6.96992 9.36098C7.17683 9.516 7.41471 9.62465 7.66736 9.67954V10C7.66821 10.0879 7.7037 10.1718 7.76612 10.2337C7.82854 10.2955 7.91284 10.3302 8.00069 10.3302C8.08854 10.3302 8.17283 10.2955 8.23525 10.2337C8.29767 10.1718 8.33317 10.0879 8.33402 10V9.66301C8.42121 9.63992 8.50584 9.60805 8.58661 9.56788C8.94486 9.38663 9.16733 9.06366 9.16733 8.72494C9.16727 8.0811 8.58052 7.85688 8.26527 7.73644Z" fill="white"/>
<path d="M8.00064 4.3335C7.27545 4.3335 6.56654 4.54854 5.96356 4.95144C5.36058 5.35434 4.89061 5.92699 4.61309 6.59698C4.33557 7.26698 4.26296 8.00422 4.40444 8.71548C4.54592 9.42674 4.89513 10.0801 5.40792 10.5929C5.92072 11.1057 6.57405 11.4549 7.28531 11.5964C7.99657 11.7378 8.73382 11.6652 9.40381 11.3877C10.0738 11.1102 10.6465 10.6402 11.0494 10.0372C11.4523 9.43426 11.6673 8.72535 11.6673 8.00015C11.6662 7.02803 11.2795 6.09604 10.5921 5.40865C9.90475 4.72126 8.97276 4.3346 8.00064 4.3335ZM8.00064 11.0002C7.4073 11.0002 6.82728 10.8242 6.33393 10.4946C5.84058 10.1649 5.45607 9.69638 5.229 9.1482C5.00194 8.60002 4.94253 7.99682 5.05829 7.41488C5.17404 6.83294 5.45976 6.29839 5.87932 5.87883C6.29888 5.45927 6.83343 5.17355 7.41537 5.0578C7.99731 4.94204 8.60051 5.00145 9.14869 5.22851C9.69687 5.45558 10.1654 5.84009 10.4951 6.33344C10.8247 6.82679 11.0006 7.40681 11.0006 8.00015C10.9997 8.79552 10.6833 9.55804 10.1209 10.1204C9.55853 10.6829 8.79601 10.9992 8.00064 11.0002Z" fill="white"/>
</svg>
