<svg width="16" height="16" viewBox="0 0 16 16" fill="none" xmlns="http://www.w3.org/2000/svg">
<path d="M14.4849 1.51504C14.2605 1.29006 13.9789 1.13064 13.6705 1.05398C13.3621 0.977315 13.0386 0.986328 12.7349 1.08004L2.23492 4.31004C1.50992 4.53004 1.02992 5.16504 1.00492 5.92004C0.979918 6.67504 1.41992 7.34004 2.12492 7.61004L3.95992 8.31504L3.66492 10.66C3.63807 10.8708 3.65644 11.0849 3.7188 11.2881C3.78117 11.4912 3.88609 11.6787 4.02659 11.8382C4.16709 11.9976 4.33994 12.1253 4.53364 12.2127C4.72733 12.3001 4.93742 12.3452 5.14992 12.345C5.21492 12.345 5.27492 12.345 5.33992 12.335L7.68492 12.04L8.38992 13.875C8.65492 14.56 9.28492 14.995 10.0149 14.995H10.0799C10.8349 14.97 11.4649 14.485 11.6899 13.765L14.9199 3.26004C15.0136 2.95639 15.0226 2.6329 14.946 2.3245C14.8693 2.0161 14.7099 1.73448 14.4849 1.51004V1.51504ZM5.21492 11.345C5.05992 11.365 4.90992 11.31 4.79992 11.2C4.68992 11.09 4.63992 10.94 4.65492 10.785L4.91492 8.68504L6.64492 9.35004L7.30992 11.08L5.20992 11.34L5.21492 11.345ZM13.9649 2.97004L10.7349 13.475C10.6199 13.85 10.3049 13.995 10.0449 14C9.79492 14.005 9.46492 13.89 9.32492 13.52L7.61992 9.08504L9.85492 6.85004C9.90121 6.80375 9.93793 6.7488 9.96298 6.68832C9.98803 6.62783 10.0009 6.56301 10.0009 6.49754C10.0009 6.43208 9.98803 6.36725 9.96298 6.30677C9.93793 6.24629 9.90121 6.19133 9.85492 6.14504C9.80863 6.09875 9.75367 6.06203 9.69319 6.03698C9.63271 6.01193 9.56788 5.99903 9.50242 5.99903C9.43695 5.99903 9.37213 6.01193 9.31165 6.03698C9.25116 6.06203 9.19621 6.09875 9.14992 6.14504L6.91492 8.38004L2.48492 6.67504C2.11992 6.53504 1.99992 6.21004 2.00492 5.95504C2.00992 5.70004 2.15492 5.38004 2.52992 5.26504L13.0349 2.03504C13.3049 1.95004 13.5849 2.02004 13.7849 2.22004C13.9849 2.42004 14.0549 2.70004 13.9699 2.96504L13.9649 2.97004Z" fill="white"/>
</svg>
