<svg width="70" height="68" viewBox="0 0 70 68" fill="none" xmlns="http://www.w3.org/2000/svg">
<g id="Group">
<path id="Vector" d="M8.3332 67.3998H58.3332C60.5433 67.3998 62.663 66.5218 64.2258 64.959C65.7886 63.3962 66.6665 61.2766 66.6665 59.0664V53.7664C68.5999 53.0664 69.9999 51.2331 69.9999 49.0664V35.7331C69.9999 33.5664 68.5999 31.7331 66.6665 31.0331V22.3998C66.6665 20.1896 65.7886 18.07 64.2258 16.5072C62.663 14.9444 60.5433 14.0664 58.3332 14.0664H49.9999V8.93311C49.9999 6.16644 48.6332 3.56644 46.3332 2.03311C44.0332 0.466443 41.1332 0.166443 38.5665 1.19978L5.29987 14.6664C5.29987 14.6664 5.06654 14.7664 4.96654 14.7998H4.86654L4.7332 14.9331C1.96654 16.2998 0.0332031 19.0998 0.0332031 22.3998V59.0664C0.0332031 61.2766 0.911177 63.3962 2.47398 64.959C4.03678 66.5218 6.1564 67.3998 8.36654 67.3998H8.3332ZM66.6665 49.0664C66.6665 49.9998 65.9332 50.7331 64.9999 50.7331H51.6665C50.0162 50.7361 48.4021 50.2489 47.029 49.3335C45.6558 48.418 44.5854 47.1154 43.9535 45.5908C43.3215 44.0663 43.1565 42.3884 43.4792 40.7699C43.802 39.1515 44.5981 37.6653 45.7665 36.4998C47.3332 34.8998 49.4332 34.0664 51.6665 34.0664H64.9999C65.9332 34.0664 66.6665 34.7998 66.6665 35.7331V49.0664ZM39.7999 4.29978C41.3665 3.66644 43.0665 3.83311 44.4665 4.79978C45.8665 5.73311 46.6665 7.26644 46.6665 8.93311V14.0664H15.6665L39.7999 4.29978ZM3.3332 22.3998C3.3332 20.3998 4.5332 18.6664 6.26654 17.8664L6.59987 17.7331C7.1332 17.5331 7.7332 17.3998 8.3332 17.3998H58.3332C61.0999 17.3998 63.3332 19.6331 63.3332 22.3998V30.7331H51.6665C48.5665 30.7331 45.6332 31.9331 43.4332 34.1664C41.2332 36.3664 39.9999 39.2998 39.9999 42.3998C39.9999 48.8331 45.2332 54.0664 51.6665 54.0664H63.3332V59.0664C63.3332 61.8331 61.0999 64.0664 58.3332 64.0664H8.3332C5.56654 64.0664 3.3332 61.8331 3.3332 59.0664V22.3998Z" fill="#ED6D2C"/>
<path id="Vector_2" d="M51.666 37.3997C48.8993 37.3997 46.666 39.6331 46.666 42.3997C46.666 45.1664 48.8993 47.3997 51.666 47.3997C54.4327 47.3997 56.666 45.1664 56.666 42.3997C56.666 39.6331 54.4327 37.3997 51.666 37.3997ZM51.666 44.0664C50.7327 44.0664 49.9993 43.3331 49.9993 42.3997C49.9993 41.4664 50.7327 40.7331 51.666 40.7331C52.5993 40.7331 53.3327 41.4664 53.3327 42.3997C53.3327 43.3331 52.5993 44.0664 51.666 44.0664ZM8.33268 57.3997C9.26602 57.3997 9.99935 56.6664 9.99935 55.7331V25.7331C9.99935 24.7997 9.26602 24.0664 8.33268 24.0664C7.39935 24.0664 6.66602 24.7997 6.66602 25.7331V55.7331C6.66602 56.6664 7.39935 57.3997 8.33268 57.3997Z" fill="#ED6D2C"/>
</g>
</svg>
